# xmcd
#
# Track frame offsets: 
#        150
#        16512
#        32690
#        51020
#        67035
#        89585
#        111195
#        133120
#        152542
#        166907
#        184240
#
# Disc length: 2778 seconds
#
# Revision: 2
# Processed by: cddbd v1.5.2PL0 Copyright (c) Steve Scherf et al.
# Submitted via: ExactAudioCopy v0.99pb4
#
DISCID=890ad80b
DTITLE=The Rankin Family - Endless Seasons
DYEAR=1995
DGENRE=Folk
TTITLE0=As I Roved Out
TTITLE1=The River
TTITLE2=Natives
TTITLE3=Òganaich An Òr-fhuilt Bhuidhe and Am Bràighe (Youth Whose Hair I
TTITLE3=s Golden Yellow and The Braes Of Magaree)
TTITLE4=Forty Days And Nights
TTITLE5=Eyes Of Margaret
TTITLE6=You Feel The Same Way Too
TTITLE7=Endless Seasons
TTITLE8=Padstow
TTITLE9=Blue Eyed Suzie
TTITLE10=Your Boat's Lost At Sea
EXTD=YEAR: 1995
EXTT0=
EXTT1=
EXTT2=
EXTT3=
EXTT4=
EXTT5=
EXTT6=
EXTT7=
EXTT8=
EXTT9=
EXTT10=
PLAYORDER=
